<svg xmlns="http://www.w3.org/2000/svg" viewBox="0 0 800 1400" fill="none" stroke="#1c1c2e" stroke-linecap="round" stroke-linejoin="round">

  <!-- ═══════════════════════════════════════ -->
  <!-- TOP LEFT — olive branch                -->
  <!-- ═══════════════════════════════════════ -->
  <g transform="translate(30, 40) rotate(-15)">
    <!-- main stem -->
    <path d="M0,0 C10,40 5,80 15,120 C20,150 10,180 20,220" stroke-width="1.2"/>
    <!-- left leaves -->
    <ellipse cx="-8" cy="35" rx="6" ry="14" transform="rotate(-30 -8 35)" stroke-width="0.9"/>
    <ellipse cx="-12" cy="70" rx="6" ry="14" transform="rotate(-40 -12 70)" stroke-width="0.9"/>
    <ellipse cx="-6" cy="110" rx="5" ry="12" transform="rotate(-25 -6 110)" stroke-width="0.9"/>
    <ellipse cx="-10" cy="155" rx="6" ry="13" transform="rotate(-35 -10 155)" stroke-width="0.9"/>
    <ellipse cx="-5" cy="195" rx="5" ry="11" transform="rotate(-20 -5 195)" stroke-width="0.9"/>
    <!-- right leaves -->
    <ellipse cx="20" cy="50" rx="6" ry="14" transform="rotate(25 20 50)" stroke-width="0.9"/>
    <ellipse cx="25" cy="90" rx="6" ry="13" transform="rotate(30 25 90)" stroke-width="0.9"/>
    <ellipse cx="22" cy="130" rx="5" ry="12" transform="rotate(20 22 130)" stroke-width="0.9"/>
    <ellipse cx="24" cy="170" rx="6" ry="13" transform="rotate(28 24 170)" stroke-width="0.9"/>
    <!-- small olives -->
    <ellipse cx="-14" cy="88" rx="3" ry="4" stroke-width="0.8"/>
    <ellipse cx="26" cy="112" rx="3" ry="4" stroke-width="0.8"/>
    <ellipse cx="-8" cy="140" rx="2.5" ry="3.5" stroke-width="0.8"/>
    <ellipse cx="20" cy="60" rx="2.5" ry="3.5" stroke-width="0.8"/>
  </g>

  <!-- ═══════════════════════════════════════ -->
  <!-- TOP RIGHT — vine leaf cluster          -->
  <!-- ═══════════════════════════════════════ -->
  <g transform="translate(680, 20) rotate(10)">
    <!-- vine tendril -->
    <path d="M0,0 C-20,30 10,60 -10,90 C-25,115 0,140 -15,170" stroke-width="1.0"/>
    <path d="M-10,90 C10,95 30,80 40,95" stroke-width="0.8"/>
    <!-- large vine leaf 1 -->
    <g transform="translate(-35, 55) rotate(-20)">
      <path d="M0,0 C-18,-12 -28,5 -20,20 C-12,35 5,38 15,25 C25,12 18,-8 0,0Z" stroke-width="1.0"/>
      <path d="M0,0 L-10,20" stroke-width="0.6"/>
      <path d="M0,0 C-5,8 -15,12 -20,20" stroke-width="0.6"/>
      <path d="M0,0 C5,8 10,18 15,25" stroke-width="0.6"/>
      <path d="M-10,20 C-8,22 -2,24 5,22" stroke-width="0.5"/>
    </g>
    <!-- large vine leaf 2 -->
    <g transform="translate(10, 30) rotate(15)">
      <path d="M0,0 C-15,-10 -24,4 -17,18 C-10,30 4,32 13,21 C22,10 15,-7 0,0Z" stroke-width="1.0"/>
      <path d="M0,0 L-8,18" stroke-width="0.6"/>
      <path d="M0,0 C-4,7 -12,10 -17,18" stroke-width="0.6"/>
      <path d="M0,0 C4,7 9,15 13,21" stroke-width="0.6"/>
    </g>
    <!-- small grape cluster -->
    <g transform="translate(-5, 140)">
      <circle cx="0" cy="0" r="4" stroke-width="0.9"/>
      <circle cx="8" cy="3" r="4" stroke-width="0.9"/>
      <circle cx="-8" cy="3" r="4" stroke-width="0.9"/>
      <circle cx="4" cy="10" r="4" stroke-width="0.9"/>
      <circle cx="-4" cy="10" r="4" stroke-width="0.9"/>
      <circle cx="0" cy="17" r="4" stroke-width="0.9"/>
      <circle cx="8" cy="17" r="3.5" stroke-width="0.9"/>
      <circle cx="-8" cy="17" r="3.5" stroke-width="0.9"/>
      <circle cx="4" cy="23" r="3.5" stroke-width="0.9"/>
      <circle cx="-4" cy="23" r="3.5" stroke-width="0.9"/>
      <circle cx="0" cy="29" r="3" stroke-width="0.9"/>
      <!-- stem -->
      <path d="M0,-8 C0,-14 5,-18 8,-22" stroke-width="0.8"/>
      <path d="M8,-22 C12,-18 10,-12 8,-8" stroke-width="0.7"/>
    </g>
  </g>

  <!-- ═══════════════════════════════════════ -->
  <!-- MIDDLE LEFT — grape vine with leaves   -->
  <!-- ═══════════════════════════════════════ -->
  <g transform="translate(10, 380) rotate(5)">
    <!-- main vine -->
    <path d="M0,0 C30,50 10,100 40,150 C60,185 30,230 50,270" stroke-width="1.1"/>
    <!-- tendrils -->
    <path d="M20,60 C40,50 60,60 70,45" stroke-width="0.7"/>
    <path d="M70,45 C80,35 85,42 82,50" stroke-width="0.6"/>
    <path d="M35,130 C55,120 75,130 85,115" stroke-width="0.7"/>
    <!-- vine leaf 1 -->
    <g transform="translate(50, 30) rotate(-25)">
      <path d="M0,0 C-22,-14 -34,6 -24,24 C-14,42 6,46 18,30 C30,14 22,-10 0,0Z" stroke-width="1.0"/>
      <path d="M0,0 L-12,24" stroke-width="0.6"/>
      <path d="M0,0 C-6,10 -18,15 -24,24" stroke-width="0.6"/>
      <path d="M0,0 C6,10 12,20 18,30" stroke-width="0.6"/>
      <path d="M-12,24 C-8,27 -2,29 6,27" stroke-width="0.5"/>
      <path d="M-6,12 C-2,14 2,13 6,10" stroke-width="0.5"/>
    </g>
    <!-- vine leaf 2 -->
    <g transform="translate(55, 115) rotate(20)">
      <path d="M0,0 C-18,-11 -28,5 -20,20 C-12,33 5,36 14,23 C23,10 17,-8 0,0Z" stroke-width="1.0"/>
      <path d="M0,0 L-10,20" stroke-width="0.6"/>
      <path d="M0,0 C-5,8 -14,12 -20,20" stroke-width="0.6"/>
      <path d="M0,0 C5,8 10,16 14,23" stroke-width="0.6"/>
    </g>
    <!-- grape cluster -->
    <g transform="translate(55, 185)">
      <circle cx="0" cy="0" r="4.5" stroke-width="0.9"/>
      <circle cx="9" cy="4" r="4.5" stroke-width="0.9"/>
      <circle cx="-9" cy="4" r="4.5" stroke-width="0.9"/>
      <circle cx="4.5" cy="12" r="4.5" stroke-width="0.9"/>
      <circle cx="-4.5" cy="12" r="4.5" stroke-width="0.9"/>
      <circle cx="9" cy="20" r="4" stroke-width="0.9"/>
      <circle cx="-9" cy="20" r="4" stroke-width="0.9"/>
      <circle cx="0" cy="20" r="4" stroke-width="0.9"/>
      <circle cx="4.5" cy="27" r="4" stroke-width="0.9"/>
      <circle cx="-4.5" cy="27" r="4" stroke-width="0.9"/>
      <circle cx="0" cy="34" r="3.5" stroke-width="0.9"/>
      <path d="M0,-8 C2,-16 8,-20 12,-26" stroke-width="0.8"/>
      <path d="M12,-26 C16,-20 14,-12 10,-8" stroke-width="0.7"/>
    </g>
  </g>

  <!-- ═══════════════════════════════════════ -->
  <!-- MIDDLE RIGHT — olive branch            -->
  <!-- ═══════════════════════════════════════ -->
  <g transform="translate(720, 450) rotate(175)">
    <path d="M0,0 C8,35 4,70 12,105 C16,130 8,158 16,190" stroke-width="1.2"/>
    <ellipse cx="-7" cy="30" rx="5" ry="13" transform="rotate(-28 -7 30)" stroke-width="0.9"/>
    <ellipse cx="-10" cy="62" rx="5" ry="13" transform="rotate(-38 -10 62)" stroke-width="0.9"/>
    <ellipse cx="-5" cy="95" rx="5" ry="11" transform="rotate(-22 -5 95)" stroke-width="0.9"/>
    <ellipse cx="-9" cy="132" rx="5" ry="12" transform="rotate(-32 -9 132)" stroke-width="0.9"/>
    <ellipse cx="18" cy="44" rx="5" ry="13" transform="rotate(24 18 44)" stroke-width="0.9"/>
    <ellipse cx="21" cy="78" rx="5" ry="12" transform="rotate(28 21 78)" stroke-width="0.9"/>
    <ellipse cx="19" cy="115" rx="5" ry="11" transform="rotate(22 19 115)" stroke-width="0.9"/>
    <ellipse cx="20" cy="150" rx="5" ry="12" transform="rotate(26 20 150)" stroke-width="0.9"/>
    <ellipse cx="-11" cy="78" rx="3" ry="4" stroke-width="0.8"/>
    <ellipse cx="22" cy="98" rx="2.5" ry="3.5" stroke-width="0.8"/>
    <ellipse cx="-7" cy="118" rx="2.5" ry="3.5" stroke-width="0.8"/>
  </g>

  <!-- ═══════════════════════════════════════ -->
  <!-- LOWER LEFT — scattered olive sprig     -->
  <!-- ═══════════════════════════════════════ -->
  <g transform="translate(60, 780) rotate(-8)">
    <path d="M0,0 C5,25 2,55 8,80 C12,100 5,125 10,150" stroke-width="1.1"/>
    <ellipse cx="-6" cy="22" rx="5" ry="12" transform="rotate(-30 -6 22)" stroke-width="0.9"/>
    <ellipse cx="-8" cy="50" rx="5" ry="12" transform="rotate(-35 -8 50)" stroke-width="0.9"/>
    <ellipse cx="-5" cy="78" rx="4" ry="11" transform="rotate(-22 -5 78)" stroke-width="0.9"/>
    <ellipse cx="-7" cy="110" rx="5" ry="11" transform="rotate(-28 -7 110)" stroke-width="0.9"/>
    <ellipse cx="15" cy="35" rx="5" ry="12" transform="rotate(22 15 35)" stroke-width="0.9"/>
    <ellipse cx="17" cy="65" rx="5" ry="11" transform="rotate(26 17 65)" stroke-width="0.9"/>
    <ellipse cx="14" cy="95" rx="4" ry="11" transform="rotate(20 14 95)" stroke-width="0.9"/>
    <ellipse cx="16" cy="128" rx="5" ry="11" transform="rotate(24 16 128)" stroke-width="0.9"/>
    <ellipse cx="-9" cy="62" rx="2.5" ry="3.5" stroke-width="0.8"/>
    <ellipse cx="17" cy="80" rx="2.5" ry="3.5" stroke-width="0.8"/>
  </g>

  <!-- ═══════════════════════════════════════ -->
  <!-- LOWER RIGHT — vine leaves + grapes     -->
  <!-- ═══════════════════════════════════════ -->
  <g transform="translate(660, 820) rotate(-12)">
    <path d="M0,0 C-25,40 5,80 -20,120 C-35,148 -10,180 -25,215" stroke-width="1.0"/>
    <!-- vine leaf 1 -->
    <g transform="translate(-50, 45) rotate(15)">
      <path d="M0,0 C-20,-13 -30,5 -22,21 C-14,37 5,40 16,26 C27,12 20,-9 0,0Z" stroke-width="1.0"/>
      <path d="M0,0 L-11,21" stroke-width="0.6"/>
      <path d="M0,0 C-5,9 -16,13 -22,21" stroke-width="0.6"/>
      <path d="M0,0 C5,9 11,18 16,26" stroke-width="0.6"/>
      <path d="M-11,21 C-7,24 -1,26 7,24" stroke-width="0.5"/>
    </g>
    <!-- vine leaf 2 -->
    <g transform="translate(-10, 85) rotate(-18)">
      <path d="M0,0 C-16,-10 -25,4 -18,18 C-11,30 4,33 13,21 C22,9 16,-7 0,0Z" stroke-width="1.0"/>
      <path d="M0,0 L-9,18" stroke-width="0.6"/>
      <path d="M0,0 C-4,7 -13,11 -18,18" stroke-width="0.6"/>
      <path d="M0,0 C4,7 9,15 13,21" stroke-width="0.6"/>
    </g>
    <!-- tendril -->
    <path d="M-20,120 C0,110 20,120 28,108" stroke-width="0.7"/>
    <path d="M28,108 C34,100 36,106 33,112" stroke-width="0.6"/>
    <!-- grape cluster -->
    <g transform="translate(-30, 155)">
      <circle cx="0" cy="0" r="4" stroke-width="0.9"/>
      <circle cx="8" cy="3" r="4" stroke-width="0.9"/>
      <circle cx="-8" cy="3" r="4" stroke-width="0.9"/>
      <circle cx="4" cy="10" r="4" stroke-width="0.9"/>
      <circle cx="-4" cy="10" r="4" stroke-width="0.9"/>
      <circle cx="0" cy="17" r="3.5" stroke-width="0.9"/>
      <circle cx="8" cy="17" r="3.5" stroke-width="0.9"/>
      <circle cx="-8" cy="17" r="3.5" stroke-width="0.9"/>
      <circle cx="0" cy="23" r="3" stroke-width="0.9"/>
      <circle cx="4" cy="28" r="3" stroke-width="0.9"/>
      <circle cx="-4" cy="28" r="3" stroke-width="0.9"/>
      <path d="M0,-8 C1,-14 6,-18 9,-23" stroke-width="0.8"/>
    </g>
  </g>

  <!-- ═══════════════════════════════════════ -->
  <!-- BOTTOM CENTER — loose olive sprig      -->
  <!-- ═══════════════════════════════════════ -->
  <g transform="translate(340, 1180) rotate(2)">
    <path d="M0,0 C6,30 2,62 10,90" stroke-width="1.1"/>
    <ellipse cx="-7" cy="25" rx="5" ry="12" transform="rotate(-32 -7 25)" stroke-width="0.9"/>
    <ellipse cx="-6" cy="55" rx="4" ry="11" transform="rotate(-25 -6 55)" stroke-width="0.9"/>
    <ellipse cx="-5" cy="80" rx="4" ry="10" transform="rotate(-20 -5 80)" stroke-width="0.9"/>
    <ellipse cx="16" cy="38" rx="5" ry="12" transform="rotate(26 16 38)" stroke-width="0.9"/>
    <ellipse cx="15" cy="68" rx="4" ry="11" transform="rotate(22 15 68)" stroke-width="0.9"/>
    <ellipse cx="-8" cy="42" rx="2.5" ry="3.5" stroke-width="0.8"/>
    <ellipse cx="16" cy="55" rx="2.5" ry="3" stroke-width="0.8"/>
  </g>

  <!-- small olive sprig mid-right -->
  <g transform="translate(760, 680) rotate(160)">
    <path d="M0,0 C4,20 2,42 7,62" stroke-width="1.0"/>
    <ellipse cx="-5" cy="18" rx="4" ry="10" transform="rotate(-28 -5 18)" stroke-width="0.8"/>
    <ellipse cx="-4" cy="40" rx="4" ry="9" transform="rotate(-22 -4 40)" stroke-width="0.8"/>
    <ellipse cx="12" cy="28" rx="4" ry="10" transform="rotate(24 12 28)" stroke-width="0.8"/>
    <ellipse cx="11" cy="50" rx="3.5" ry="9" transform="rotate(20 11 50)" stroke-width="0.8"/>
    <ellipse cx="-6" cy="30" rx="2" ry="3" stroke-width="0.7"/>
  </g>

  <!-- lone grape cluster mid-left -->
  <g transform="translate(25, 600)">
    <circle cx="0" cy="0" r="3.5" stroke-width="0.8"/>
    <circle cx="7" cy="3" r="3.5" stroke-width="0.8"/>
    <circle cx="-7" cy="3" r="3.5" stroke-width="0.8"/>
    <circle cx="3.5" cy="9" r="3.5" stroke-width="0.8"/>
    <circle cx="-3.5" cy="9" r="3.5" stroke-width="0.8"/>
    <circle cx="0" cy="15" r="3" stroke-width="0.8"/>
    <circle cx="7" cy="15" r="3" stroke-width="0.8"/>
    <circle cx="-7" cy="15" r="3" stroke-width="0.8"/>
    <circle cx="0" cy="20" r="2.5" stroke-width="0.8"/>
    <path d="M0,-6 C1,-11 5,-14 7,-18" stroke-width="0.7"/>
  </g>

</svg>
